
<svg viewBox="0 0 33.11 49.32" xmlns="http://www.w3.org/2000/svg"><path d="m3.88 30.46-.18-.14c-.15-.12-3.7-2.95-3.7-5.5 0-1.82 1.07-2.76 2.12-2.76a2.16 2.16 0 0 1 1.76 1 2.13 2.13 0 0 1 1.75-1c1.06 0 2.12 1 2.12 2.76 0 2.55-3.54 5.38-3.69 5.5z"/><path d="m3.12 7.38h4.08v1.14h-5.28v-8.4h1.2z"/><path d="m12.6 0c1.93 0 3 2 3 4.32s-1.06 4.32-3 4.32-3-2-3-4.32 1.07-4.32 3-4.32zm0 7.44c1.1 0 1.72-1.41 1.72-3.12s-.62-3.12-1.72-3.12-1.71 1.4-1.71 3.12.61 3.12 1.71 3.12z"/><path d="m21.44 8.64h-.44l-3-8.52h1.3l1.94 5.5 1.94-5.5h1.3z"/><path d="m27.36.12h5.28v1.14h-4.08v2.12h2.88v1.14h-2.88v2.86h4.08v1.14h-5.28z"/><path d="m2.52 19.52h-1.2v-5.31c0-2.06 1.19-3.21 2.68-3.21s2.6 1.15 2.6 3.21v5.31h-1.2v-2.88h-2.88zm2.88-5.31c0-1.33-.65-2-1.44-2s-1.44.68-1.44 2v1.29h2.88z"/><path d="m14.16 19.52v-5l-1.44 3.21h-.24l-1.48-3.26v5h-1v-8.4h.75l1.89 4.23 1.9-4.23h.74v8.4z"/><path d="m23.1 18.38v1.14h-3.72v-1.14h1.26v-6.12h-1.26v-1.14h3.72v1.14h-1.26v6.12z"/><path d="m33.11 19.52h-1.39l-1.64-2.82h-1.64v2.81h-1.2v-8.4h2.54a2.79 2.79 0 0 1 1.47 5.17zm-1.79-5.61a1.61 1.61 0 0 0 -1.6-1.65h-1.28v3.31h1.28a1.61 1.61 0 0 0 1.6-1.66z"/><path d="m6.28 35.33a2.14 2.14 0 0 1 -.59 1.48 2.57 2.57 0 0 1 -1.42 4.71h-2.95v-8.4h2.75a2.22 2.22 0 0 1 2.21 2.21zm-1.28 0a1.07 1.07 0 0 0 -1-1.07h-1.48v2.12h1.48a1.06 1.06 0 0 0 1-1.05zm.58 3.67a1.43 1.43 0 0 0 -1.43-1.43h-1.63v2.86h1.63a1.43 1.43 0 0 0 1.43-1.43z"/><path d="m14.46 40.38v1.14h-3.72v-1.14h1.26v-6.12h-1.26v-1.14h3.72v1.14h-1.26v6.12z"/><path d="m23.56 35.33a2.14 2.14 0 0 1 -.56 1.48 2.57 2.57 0 0 1 -1.42 4.71h-2.98v-8.4h2.75a2.22 2.22 0 0 1 2.21 2.21zm-1.25 0a1.07 1.07 0 0 0 -1.07-1.07h-1.44v2.12h1.44a1.06 1.06 0 0 0 1.07-1.05zm.55 3.67a1.43 1.43 0 0 0 -1.43-1.43h-1.63v2.86h1.63a1.43 1.43 0 0 0 1.43-1.43z"/><path d="m31.74 40.38v1.14h-3.74v-1.14h1.26v-6.12h-1.26v-1.14h3.72v1.14h-1.24v6.12z"/><path d="m4.07 47.52-1.22 1.73h-.78l1.22-1.73a1.4 1.4 0 1 1 0-2.8 1.4 1.4 0 0 1 1.41 1.4 2.55 2.55 0 0 1 -.63 1.4zm-.82-2.2a.8.8 0 0 0 0 1.6.8.8 0 0 0 0-1.6z"/><path d="m8.78 47.34a.93.93 0 1 1 -.93-.94.93.93 0 0 1 .93.94z"/><path d="m13.1 46a.64.64 0 0 0 -.64-.64.64.64 0 0 0 -.64.64v.32h-.64v-.32a1.28 1.28 0 0 1 2.56 0 2 2 0 0 1 -.55 1.28l-1 1.35h1.56v.63h-2.57v-.26l1.44-2a2.11 2.11 0 0 0 .48-1z"/><path d="m18.47 47.92a1.45 1.45 0 0 1 -1.58 1.4 2.25 2.25 0 0 1 -1.41-.54l.25-.48a2.1 2.1 0 0 0 1.1.42c.57 0 1-.33 1-.79s-.47-.8-1-.8a2 2 0 0 0 -.57.09l-.26-.22 1.25-1.63h-1.6v-.61h2.64v.31l-1.12 1.46a1.44 1.44 0 0 1 1.3 1.39z"/><path d="m22.61 47.34a.94.94 0 1 1 -.94-.94.94.94 0 0 1 .94.94z"/><path d="m26.92 46a.64.64 0 0 0 -1.28 0v.32h-.64v-.32a1.28 1.28 0 0 1 2.56 0 1.94 1.94 0 0 1 -.56 1.27l-1 1.35h1.56v.63h-2.56v-.25l1.44-2a2 2 0 0 0 .48-1z"/><path d="m31.53 46a.64.64 0 1 0 -1.28 0v.32h-.64v-.32a1.28 1.28 0 0 1 2.56 0 2 2 0 0 1 -.55 1.28l-1 1.35h1.56v.63h-2.57v-.26l1.44-2a2.11 2.11 0 0 0 .48-1z"/><path d="m11.16 30.52h-1.16v-5.31c0-2.06 1.15-3.21 2.6-3.21s2.64 1.15 2.64 3.21v5.31h-1.24v-2.88h-2.84zm2.84-5.31c0-1.33-.65-2-1.44-2s-1.44.68-1.44 2v1.29h2.88z"/><path d="m22.8 22.12h1.08v8.4h-.88l-3.3-5.7v5.7h-1.1v-8.4h.9l3.3 5.7z"/><path d="m27.24 22.12h2.07c2.32 0 3.56 1.87 3.56 4.2s-1.24 4.2-3.56 4.2h-2.07zm1.2 7.26h1c1.57 0 2.2-1.36 2.2-3.06s-.63-3.06-2.2-3.06h-1z"/></svg>