<svg xmlns="http://www.w3.org/2000/svg" viewBox="0 0 33.11 41.52"><g id="Layer_2" data-name="Layer 2"><g id="Layer_1-2" data-name="Layer 1"><path d="M3.88,30.46l-.18-.14C3.55,30.2,0,27.37,0,24.82,0,23,1.07,22.06,2.12,22.06a2.16,2.16,0,0,1,1.76,1,2.13,2.13,0,0,1,1.75-1c1.06,0,2.12,1,2.12,2.76,0,2.55-3.54,5.38-3.69,5.5Z"/><path d="M3.12,7.38H7.2V8.52H1.92V.12h1.2Z"/><path d="M12.6,0c1.93,0,3,2,3,4.32s-1.06,4.32-3,4.32-3-2-3-4.32S10.67,0,12.6,0Zm0,7.44c1.1,0,1.72-1.41,1.72-3.12S13.7,1.2,12.6,1.2s-1.71,1.4-1.71,3.12S11.5,7.44,12.6,7.44Z"/><path d="M21.44,8.64H21L18,.12h1.3l1.94,5.5L23.18.12h1.3Z"/><path d="M27.36.12h5.28V1.26H28.56V3.38h2.88V4.52H28.56V7.38h4.08V8.52H27.36Z"/><path d="M2.52,19.52H1.32V14.21C1.32,12.15,2.51,11,4,11S6.6,12.15,6.6,14.21v5.31H5.4V16.64H2.52ZM5.4,14.21c0-1.33-.65-2-1.44-2s-1.44.68-1.44,2V15.5H5.4Z"/><path d="M14.16,19.52v-5l-1.44,3.21h-.24L11,14.47v5H10v-8.4h.75l1.89,4.23,1.9-4.23h.74v8.4Z"/><path d="M23.1,18.38v1.14H19.38V18.38h1.26V12.26H19.38V11.12H23.1v1.14H21.84v6.12Z"/><path d="M33.11,19.52H31.72L30.08,16.7H28.44v2.81h-1.2v-8.4h2.54a2.79,2.79,0,0,1,1.47,5.17Zm-1.79-5.61a1.61,1.61,0,0,0-1.6-1.65H28.44v3.31h1.28A1.61,1.61,0,0,0,31.32,13.91Z"/><path d="M6.28,35.33a2.14,2.14,0,0,1-.59,1.48,2.57,2.57,0,0,1-1.42,4.71H1.32v-8.4H4.07A2.22,2.22,0,0,1,6.28,35.33ZM5,35.33A1.07,1.07,0,0,0,4,34.26H2.52v2.12H4A1.06,1.06,0,0,0,5,35.33ZM5.58,39a1.43,1.43,0,0,0-1.43-1.43H2.52v2.86H4.15A1.43,1.43,0,0,0,5.58,39Z"/><path d="M14.46,40.38v1.14H10.74V40.38H12V34.26H10.74V33.12h3.72v1.14H13.2v6.12Z"/><path d="M23.56,35.33A2.14,2.14,0,0,1,23,36.81a2.57,2.57,0,0,1-1.42,4.71H18.6v-8.4h2.75A2.22,2.22,0,0,1,23.56,35.33Zm-1.25,0a1.07,1.07,0,0,0-1.07-1.07H19.8v2.12h1.44A1.06,1.06,0,0,0,22.31,35.33ZM22.86,39a1.43,1.43,0,0,0-1.43-1.43H19.8v2.86h1.63A1.43,1.43,0,0,0,22.86,39Z"/><path d="M31.74,40.38v1.14H28V40.38h1.26V34.26H28V33.12h3.72v1.14H30.48v6.12Z"/><path d="M11.16,30.52H10V25.21C10,23.15,11.15,22,12.6,22s2.64,1.15,2.64,3.21v5.31H14V27.64H11.16ZM14,25.21c0-1.33-.65-2-1.44-2s-1.44.68-1.44,2V26.5H14Z"/><path d="M22.8,22.12h1.08v8.4H23l-3.3-5.7v5.7H18.6v-8.4h.9l3.3,5.7Z"/><path d="M27.24,22.12h2.07c2.32,0,3.56,1.87,3.56,4.2s-1.24,4.2-3.56,4.2H27.24Zm1.2,7.26h1c1.57,0,2.2-1.36,2.2-3.06s-.63-3.06-2.2-3.06h-1Z"/></g></g></svg>